<?xml version="1.0" encoding="UTF-8"?>
<svg width="24px" height="22px" viewBox="0 0 24 22" version="1.1" xmlns="http://www.w3.org/2000/svg" xmlns:xlink="http://www.w3.org/1999/xlink">
    <!-- Generator: Sketch 54.1 (76490) - https://sketchapp.com -->
    <title>Decking-Active@2x</title>
    <desc>Created with Sketch.</desc>
    <g id="Icon-Library" stroke="none" stroke-width="1" fill="none" fill-rule="evenodd">
        <g id="ICONS---guide" transform="translate(-147.000000, -183.000000)">
            <g id="Decking-Active" transform="translate(147.000000, 182.000000)">
                <rect id="Rectangle" x="0" y="0" width="24" height="24"></rect>
                <g id="material-tile" transform="translate(0.000000, 1.000000)" fill="#000000" fill-rule="nonzero">
                    <path d="M23.259,19.354 L20.623,1.777 C20.5158205,1.04092006 19.8828326,0.496226237 19.139,0.5 L15.989,0.5 C15.9206539,0.500206618 15.8553476,0.52827512 15.8081651,0.577722413 C15.7609826,0.627169706 15.7360044,0.69371931 15.739,0.762 L16.677,19.529 C16.6808862,19.6108065 16.7245948,19.6855221 16.794,19.729 C17.2326534,20.0026795 17.4994411,20.4829729 17.5,21 C17.5,21.2761424 17.7238576,21.5 18,21.5 L22,21.5 C22.2761424,21.5 22.5,21.2761424 22.5,21 C22.4991836,20.5397155 22.7105793,20.1047494 23.073,19.821 C23.2144314,19.71008 23.2854448,19.5317829 23.259,19.354 Z" id="Path"></path>
                    <path d="M8.261,0.762 C8.26396318,0.693837974 8.2390514,0.627406561 8.192,0.578 C8.14510266,0.528012338 8.07954247,0.49975988 8.011,0.5 L4.861,0.5 C4.11716744,0.496226237 3.48417947,1.04092006 3.377,1.777 L0.741,19.354 C0.714325016,19.5315941 0.7849414,19.7098528 0.926,19.821 C1.28903669,20.1043523 1.50087757,20.5394749 1.5,21 C1.5,21.2761424 1.72385763,21.5 2,21.5 L6,21.5 C6.27614237,21.5 6.5,21.2761424 6.5,21 C6.5002142,20.4826172 6.76704513,20.001868 7.206,19.728 C7.2755324,19.6846456 7.31928381,19.6098569 7.323,19.528 L8.261,0.762 Z" id="Path"></path>
                    <path d="M14.236,0.738 C14.2295912,0.604636314 14.1195175,0.499846103 13.986,0.5 L10.014,0.5 C9.88048251,0.499846103 9.77040876,0.604636314 9.764,0.738 L8.821,19.6 C8.81793138,19.6821525 8.85528753,19.7606004 8.921,19.81 C9.28800663,20.0954879 9.50186965,20.5350337 9.5,21 C9.5,21.2761424 9.72385763,21.5 10,21.5 L14,21.5 C14.2761424,21.5 14.5,21.2761424 14.5,21 C14.5003281,20.5357486 14.7156037,20.0978123 15.083,19.814 C15.1487125,19.7646004 15.1860686,19.6861525 15.183,19.604 L14.236,0.738 Z" id="Path"></path>
                </g>
            </g>
        </g>
    </g>
</svg>