<?xml version="1.0" encoding="UTF-8"?>
<svg width="24px" height="22px" viewBox="0 0 24 22" version="1.1" xmlns="http://www.w3.org/2000/svg" xmlns:xlink="http://www.w3.org/1999/xlink">
    <!-- Generator: Sketch 54.1 (76490) - https://sketchapp.com -->
    <title>Decking-Inactive@2x</title>
    <desc>Created with Sketch.</desc>
    <g id="Icon-Library" stroke="none" stroke-width="1" fill="none" fill-rule="evenodd">
        <g id="ICONS---guide" transform="translate(-145.000000, -93.000000)">
            <g id="Decking-Inactive" transform="translate(145.000000, 92.000000)">
                <rect id="Rectangle" x="0" y="0" width="24" height="24"></rect>
                <g id="material-tile" transform="translate(1.000000, 2.000000)" stroke="#000000" stroke-linecap="round" stroke-linejoin="round">
                    <path d="M8,0 L7.1,18" id="Path"></path>
                    <path d="M14,0 L14.9,18" id="Path"></path>
                    <path d="M21.764,18.428 L19.128,0.852 C19.0547205,0.36232092 18.6341318,-6.25801925e-06 18.139,0 L3.861,0 C3.36586821,-6.25801925e-06 2.9452795,0.36232092 2.872,0.852 L0.236,18.428 C0.718271183,18.8071044 0.999890741,19.3865624 1,20 L5,20 C5,18.8954305 5.8954305,18 7,18 C8.1045695,18 9,18.8954305 9,20 L13,20 C13,18.8954305 13.8954305,18 15,18 C16.1045695,18 17,18.8954305 17,20 L21,20 C21.0001093,19.3865624 21.2817288,18.8071044 21.764,18.428 Z" id="Path"></path>
                </g>
            </g>
        </g>
    </g>
</svg>