<?xml version="1.0" encoding="UTF-8"?>
<svg width="24px" height="24px" viewBox="0 0 24 24" version="1.1" xmlns="http://www.w3.org/2000/svg" xmlns:xlink="http://www.w3.org/1999/xlink">
    <!-- Generator: Sketch 54.1 (76490) - https://sketchapp.com -->
    <title>Dimensions-Inactive@2x</title>
    <desc>Created with Sketch.</desc>
    <g id="Icon-Library" stroke="none" stroke-width="1" fill="none" fill-rule="evenodd">
        <g id="ICONS---guide" transform="translate(-88.000000, -92.000000)">
            <g id="Dimensions-Inactive" transform="translate(88.000000, 92.000000)">
                <rect id="Rectangle" x="0" y="0" width="24" height="24"></rect>
                <g id="real-estate-dimensions-house-ruler" transform="translate(1.000000, 1.000000)" stroke="#000000" stroke-linecap="round" stroke-linejoin="round">
                    <path d="M20,12.5 L20,20 C20,20.5522847 19.5522847,21 19,21 L10,21 C9.44771525,21 9,20.5522847 9,20 L9,12.5" id="Path"></path>
                    <path d="M7,14.5 L14.146,7.354 C14.2398043,7.2599583 14.3671727,7.20710622 14.5,7.20710622 C14.6328273,7.20710622 14.7601957,7.2599583 14.854,7.354 L22,14.5" id="Path"></path>
                    <path d="M4,4 L0,4 L0,21.5 C0,21.7761424 0.223857625,22 0.5,22 L3.5,22 C3.77614237,22 4,21.7761424 4,21.5 L4,4 Z" id="Path"></path>
                    <path d="M21.5,4 C21.7761424,4 22,3.77614237 22,3.5 L22,0.5 C22,0.223857625 21.7761424,0 21.5,0 L4,0 L4,4 L21.5,4 Z" id="Path"></path>
                    <path d="M0,4 L0,0.5 C0,0.223857625 0.223857625,0 0.5,0 L4,0" id="Path"></path>
                    <path d="M7,4 L7,2" id="Path"></path>
                    <path d="M11,4 L11,2" id="Path"></path>
                    <path d="M15,4 L15.001,2" id="Path"></path>
                    <path d="M19,4 L19.001,2" id="Path"></path>
                    <path d="M4,19 L2,19" id="Path"></path>
                    <path d="M4,15 L2,15" id="Path"></path>
                    <path d="M4,11 L2,11" id="Path"></path>
                    <path d="M4,7 L2,7" id="Path"></path>
                    <path d="M16,21 L16,17 C16,16.1715729 15.3284271,15.5 14.5,15.5 C13.6715729,15.5 13,16.1715729 13,17 L13,21" id="Path"></path>
                </g>
            </g>
        </g>
    </g>
</svg>