<?xml version="1.0" encoding="UTF-8"?>
<svg width="24px" height="24px" viewBox="0 0 24 24" version="1.1" xmlns="http://www.w3.org/2000/svg" xmlns:xlink="http://www.w3.org/1999/xlink">
    <!-- Generator: Sketch 54.1 (76490) - https://sketchapp.com -->
    <title>Photo-Active@2x</title>
    <desc>Created with Sketch.</desc>
    <g id="Icon-Library" stroke="none" stroke-width="1" fill="none" fill-rule="evenodd">
        <g id="ICONS---guide" transform="translate(-449.000000, -182.000000)">
            <g id="Photo-Active" transform="translate(449.000000, 182.000000)">
                <rect id="Rectangle" x="0" y="0" width="24" height="24"></rect>
                <g id="taking-pictures-square" fill="#000000" fill-rule="nonzero">
                    <path d="M21,0 L3,0 C1.34314575,-1.01453063e-16 2.02906125e-16,1.34314575 0,3 L0,21 C2.02906125e-16,22.6568542 1.34314575,24 3,24 L21,24 C22.6568542,24 24,22.6568542 24,21 L24,3 C24,1.34314575 22.6568542,1.01453063e-16 21,0 Z M19.5,10 L19.5,15 C19.5,16.1045695 18.6045695,17 17.5,17 L6.5,17 C5.3954305,17 4.5,16.1045695 4.5,15 L4.5,10 C4.5,8.8954305 5.3954305,8 6.5,8 L8,8 C8.18375577,7.98311397 8.35808181,7.91094298 8.5,7.793 L9.793,6.5 C10.1222327,6.19379213 10.5506767,6.01630915 11,6 L13,6 C13.4493233,6.01630915 13.8777673,6.19379213 14.207,6.5 L15.5,7.793 C15.6419182,7.91094298 15.8162442,7.98311397 16,8 L17.5,8 C18.6045695,8 19.5,8.8954305 19.5,10 Z" id="Shape"></path>
                    <circle id="Oval" cx="12" cy="12.5" r="3"></circle>
                </g>
            </g>
        </g>
    </g>
</svg>