<?xml version="1.0" encoding="UTF-8"?>
<svg width="21px" height="18px" viewBox="0 0 21 18" version="1.1" xmlns="http://www.w3.org/2000/svg" xmlns:xlink="http://www.w3.org/1999/xlink">
    <!-- Generator: Sketch 54.1 (76490) - https://sketchapp.com -->
    <title>Stairs-Active@2x</title>
    <desc>Created with Sketch.</desc>
    <g id="Icon-Library" stroke="none" stroke-width="1" fill="none" fill-rule="evenodd">
        <g id="ICONS---guide" transform="translate(-270.000000, -185.000000)">
            <g id="Stairs-Active" transform="translate(269.000000, 182.000000)">
                <rect id="Rectangle" x="0" y="0" width="24" height="24"></rect>
                <g id="stairs-ascend" transform="translate(1.000000, 3.000000)" fill="#000000" fill-rule="nonzero">
                    <path d="M21,1 C21,0.44771525 20.5522847,0 20,0 L13.5,0 C12.6715729,0 12,0.671572875 12,1.5 L12,3.5 C12,3.77614237 11.7761424,4 11.5,4 L9.5,4 C8.67157288,4 8,4.67157288 8,5.5 L8,7.5 C8,7.77614237 7.77614237,8 7.5,8 L5.5,8 C4.67157288,8 4,8.67157288 4,9.5 L4,11.5 C4,11.7761424 3.77614237,12 3.5,12 L1.5,12 C0.671572875,12 0,12.6715729 0,13.5 L0,17 C0,17.5522847 0.44771525,18 1,18 L20,18 C20.5522847,18 21,17.5522847 21,17 L21,1 Z" id="Path"></path>
                </g>
            </g>
        </g>
    </g>
</svg>