<?xml version="1.0" encoding="UTF-8"?>
<svg width="24px" height="24px" viewBox="0 0 24 24" version="1.1" xmlns="http://www.w3.org/2000/svg" xmlns:xlink="http://www.w3.org/1999/xlink">
    <!-- Generator: Sketch 54.1 (76490) - https://sketchapp.com -->
    <title>Substructure-Active@2x</title>
    <desc>Created with Sketch.</desc>
    <g id="Icon-Library" stroke="none" stroke-width="1" fill="none" fill-rule="evenodd">
        <g id="ICONS---guide" transform="translate(-213.000000, -182.000000)">
            <g id="Substructure-Active" transform="translate(213.000000, 182.000000)">
                <rect id="Rectangle" x="0" y="0" width="24" height="24"></rect>
                <g id="clamps-expand" fill="#000000" fill-rule="nonzero">
                    <path d="M24,1 C24,0.44771525 23.5522847,3.38176876e-17 23,0 L1,0 C0.44771525,-3.38176876e-17 6.76353751e-17,0.44771525 0,1 L0,5 C6.76353751e-17,5.55228475 0.44771525,6 1,6 L23,6 C23.5522847,6 24,5.55228475 24,5 L24,1 Z" id="Path"></path>
                    <path d="M23,23.9999948 C23.5522847,24 24,23.5522847 24,22.9999948 C24,22.4477153 23.5522847,22 23,21.9999948 L19.44,22 C19.3442941,22.00005 19.2505844,21.9726312 19.17,21.921 L14.177,18.71 C14.1052409,18.6642811 14.0617946,18.5850858 14.0617946,18.5 C14.0617946,18.4149142 14.1052409,18.3357189 14.177,18.29 L19.541,14.841 C19.8270633,14.6569687 19.9999649,14.3401466 19.9999649,14 C19.9999649,13.6598534 19.8270633,13.3430313 19.541,13.159 L14.177,9.71 C14.1052409,9.66428106 14.0617946,9.58508576 14.0617946,9.5 C14.0617946,9.41491424 14.1052409,9.33571894 14.177,9.29 L15.529,8.421 C15.7161356,8.30110197 15.8016666,8.07207091 15.7389299,7.85885885 C15.6761932,7.64564678 15.4802498,7.49943827 15.258,7.5 L13.408,7.5 C13.3120941,7.49955568 13.2181834,7.52738108 13.138,7.58 L12.138,8.224 C12.0558118,8.27703047 11.9501882,8.27703047 11.868,8.224 L10.868,7.58 C10.7878166,7.52738108 10.6939059,7.49955568 10.598,7.5 L8.742,7.5 C8.51975023,7.49943827 8.32380677,7.64564678 8.26107011,7.85885885 C8.19833344,8.07207091 8.28386439,8.30110197 8.471,8.421 L9.823,9.29 C9.89475908,9.33571894 9.93820538,9.41491424 9.93820538,9.5 C9.93820538,9.58508576 9.89475908,9.66428106 9.823,9.71 L4.459,13.159 C4.1729367,13.3430313 4.00003512,13.6598534 4.00003512,14 C4.00003512,14.3401466 4.1729367,14.6569687 4.459,14.841 L9.823,18.29 C9.89475908,18.3357189 9.93820538,18.4149142 9.93820538,18.5 C9.93820538,18.5850858 9.89475908,18.6642811 9.823,18.71 L4.83,21.921 C4.7494156,21.9726312 4.65570595,22.00005 4.56,22 L1,21.9999948 C0.44771525,22 6.76353751e-17,22.4477153 0,22.9999948 C-6.76353751e-17,23.5522847 0.44771525,24 1,23.9999948 L23,23.9999948 Z M7.177,14.21 C7.10524092,14.1642811 7.06179462,14.0850858 7.06179462,14 C7.06179462,13.9149142 7.10524092,13.8357189 7.177,13.79 L11.865,10.776 C11.9471882,10.7229695 12.0528118,10.7229695 12.135,10.776 L16.823,13.79 C16.8947591,13.8357189 16.9382054,13.9149142 16.9382054,14 C16.9382054,14.0850858 16.8947591,14.1642811 16.823,14.21 L12.135,17.224 C12.0528118,17.2770305 11.9471882,17.2770305 11.865,17.224 L7.177,14.21 Z M11.865,19.776 C11.9471882,19.7229695 12.0528118,19.7229695 12.135,19.776 L14.879,21.54 C14.9721582,21.600174 15.0145384,21.7145287 14.9830953,21.8208804 C14.9516522,21.9272321 14.8539023,22.0001569 14.743,22 L9.257,22 C9.14609766,22.0001569 9.04834778,21.9272321 9.01690466,21.8208804 C8.98546155,21.7145287 9.02784183,21.600174 9.121,21.54 L11.865,19.776 Z" id="Shape"></path>
                </g>
            </g>
        </g>
    </g>
</svg>