<?xml version="1.0" encoding="UTF-8"?>
<svg width="24px" height="24px" viewBox="0 0 24 24" version="1.1" xmlns="http://www.w3.org/2000/svg" xmlns:xlink="http://www.w3.org/1999/xlink">
    <!-- Generator: Sketch 54.1 (76490) - https://sketchapp.com -->
    <title>Dimensions-Active@2x</title>
    <desc>Created with Sketch.</desc>
    <g id="Icon-Library" stroke="none" stroke-width="1" fill="none" fill-rule="evenodd">
        <g id="ICONS---guide" transform="translate(-88.000000, -182.000000)">
            <g id="Dimensions-Active" transform="translate(88.000000, 182.000000)">
                <rect id="Rectangle" x="1" y="0" width="24" height="24"></rect>
                <g id="real-estate-dimensions-house-ruler" fill="#000000" fill-rule="nonzero">
                    <path d="M16.706,9.5 C16.3155001,9.10961806 15.6824999,9.10961806 15.292,9.5 L8.146,16.646 C8.00262316,16.7890142 7.95966986,17.0043894 8.03721569,17.1914633 C8.11476152,17.3785371 8.29749112,17.5003623 8.5,17.5 L9.5,17.5 C9.77614237,17.5 10,17.7238576 10,18 L10,23 C10,23.5522847 10.4477153,24 11,24 L13.5,24 C14.0522847,24 14.5,23.5522847 14.5,23 L14.5,20.5 C14.5,19.6715729 15.1715729,19 16,19 C16.8284271,19 17.5,19.6715729 17.5,20.5 L17.5,23 C17.5,23.5522847 17.9477153,24 18.5,24 L21,24 C21.5522847,24 22,23.5522847 22,23 L22,18 C22,17.7238576 22.2238576,17.5 22.5,17.5 L23.5,17.5 C23.7025089,17.5003623 23.8852385,17.3785371 23.9627843,17.1914633 C24.0403301,17.0043894 23.9973768,16.7890142 23.854,16.646 L16.706,9.5 Z" id="Path"></path>
                    <path d="M23,0 L1,0 C0.44771525,-3.38176876e-17 6.76353751e-17,0.44771525 0,1 L0,23 C6.76353751e-17,23.5522847 0.44771525,24 1,24 L4.5,24 C4.77614237,24 5,23.7761424 5,23.5 L5,20.75 C5,20.4738576 4.77614237,20.25 4.5,20.25 L2.5,20.25 C2.08578644,20.25 1.75,19.9142136 1.75,19.5 C1.75,19.0857864 2.08578644,18.75 2.5,18.75 L4.5,18.75 C4.77614237,18.75 5,18.5261424 5,18.25 L5,15.75 C5,15.4738576 4.77614237,15.25 4.5,15.25 L2.5,15.25 C2.08578644,15.25 1.75,14.9142136 1.75,14.5 C1.75,14.0857864 2.08578644,13.75 2.5,13.75 L4.5,13.75 C4.77614237,13.75 5,13.5261424 5,13.25 L5,10.75 C5,10.4738576 4.77614237,10.25 4.5,10.25 L2.5,10.25 C2.08578644,10.25 1.75,9.91421356 1.75,9.5 C1.75,9.08578644 2.08578644,8.75 2.5,8.75 L4.5,8.75 C4.77614237,8.75 5,8.52614237 5,8.25 L5,5.5 C5,5.22385763 5.22385763,5 5.5,5 L8.25,5 C8.52614237,5 8.75,4.77614237 8.75,4.5 L8.75,2.5 C8.75,2.08578644 9.08578644,1.75 9.5,1.75 C9.91421356,1.75 10.25,2.08578644 10.25,2.5 L10.25,4.5 C10.25,4.77614237 10.4738576,5 10.75,5 L13.25,5 C13.5261424,5 13.75,4.77614237 13.75,4.5 L13.75,2.5 C13.75,2.08578644 14.0857864,1.75 14.5,1.75 C14.9142136,1.75 15.25,2.08578644 15.25,2.5 L15.25,4.5 C15.25,4.77614237 15.4738576,5 15.75,5 L18.25,5 C18.5261424,5 18.75,4.77614237 18.75,4.5 L18.75,2.5 C18.75,2.08578644 19.0857864,1.75 19.5,1.75 C19.9142136,1.75 20.25,2.08578644 20.25,2.5 L20.25,4.5 C20.25,4.77614237 20.4738576,5 20.75,5 L23.5,5 C23.7761424,5 24,4.77614237 24,4.5 L24,1 C24,0.44771525 23.5522847,3.38176876e-17 23,0 Z" id="Path"></path>
                </g>
            </g>
        </g>
    </g>
</svg>