<?xml version="1.0" encoding="UTF-8"?>
<svg width="24px" height="24px" viewBox="0 0 24 24" version="1.1" xmlns="http://www.w3.org/2000/svg" xmlns:xlink="http://www.w3.org/1999/xlink">
    <!-- Generator: Sketch 54.1 (76490) - https://sketchapp.com -->
    <title>Furniture-Inactive@2x</title>
    <desc>Created with Sketch.</desc>
    <g id="Icon-Library" stroke="none" stroke-width="1" fill="none" fill-rule="evenodd">
        <g id="ICONS---guide" transform="translate(-390.000000, -92.000000)">
            <g id="Furniture-Inactive" transform="translate(390.000000, 92.000000)">
                <rect id="Rectangle" x="0" y="0" width="24" height="24"></rect>
                <g id="armchair-3" stroke="#000000" stroke-linecap="round" stroke-linejoin="round">
                    <path d="M6.164,10.119 C6.41275507,10.9072346 5.97697967,11.7481645 5.18954439,11.9994385 C4.40210911,12.2507124 3.55979028,11.8176279 3.306,11.031 L0.571,2.456 C0.333420107,1.67128134 0.769926957,0.841196082 1.55109657,0.59219485 C2.33226619,0.343193618 3.16863041,0.767545652 3.429,1.545 L6.164,10.119 Z" id="Path"></path>
                    <path d="M23.5,17 C23.5,17.8284271 22.8284271,18.5 22,18.5 L8,18.5 C7.17157288,18.5 6.5,17.8284271 6.5,17 C6.5,16.1715729 7.17157288,15.5 8,15.5 L22,15.5 C22.8284271,15.5 23.5,16.1715729 23.5,17 Z" id="Path"></path>
                    <path d="M1.5,23.5 L6.585,16.5 L4.936,12.061 L13.392,11.078 C16.1319798,10.7666036 18.608308,12.7284456 18.932,15.467 L19.859,23.5" id="Path"></path>
                </g>
            </g>
        </g>
    </g>
</svg>