<?xml version="1.0" encoding="UTF-8"?>
<svg width="24px" height="24px" viewBox="0 0 24 24" version="1.1" xmlns="http://www.w3.org/2000/svg" xmlns:xlink="http://www.w3.org/1999/xlink">
    <!-- Generator: Sketch 54.1 (76490) - https://sketchapp.com -->
    <title>Furniture-Active@2x</title>
    <desc>Created with Sketch.</desc>
    <g id="Icon-Library" stroke="none" stroke-width="1" fill="none" fill-rule="evenodd">
        <g id="ICONS---guide" transform="translate(-390.000000, -182.000000)">
            <g id="Furniture-Active" transform="translate(390.000000, 182.000000)">
                <rect id="Rectangle" x="0" y="0" width="24" height="24"></rect>
                <g id="armchair-3" fill="#000000" fill-rule="nonzero">
                    <path d="M17.94336,10.896 C16.7525303,9.93933055 15.2262521,9.50325109 13.70976,9.6864 L7.94976,10.3584 C7.68754604,10.3888594 7.44994588,10.2018673 7.41792,9.93984 C7.40237828,9.81617538 7.37603768,9.69410918 7.3392,9.57504 L4.71552,1.33536 C4.55340664,0.853539608 4.21346204,0.451786891 3.76512,0.21216 C3.31083718,-0.0217144128 2.78171755,-0.0635598216 2.29632,0.096 C1.28675898,0.417309546 0.728260032,1.49564214 1.04832,2.5056 L3.67872,10.7328 C3.82884048,11.2212784 4.17222674,11.6270985 4.62912,11.856 L4.6368,11.856 C4.74756957,11.9103187 4.83317126,12.0052025 4.87584,12.12096 L6.1152,15.46752 C6.17059664,15.616099 6.14903934,15.7824494 6.0576,15.912 L2.09472,21.53184 C1.94775522,21.7389903 1.88943798,21.9961833 1.93268281,22.2464628 C1.97592763,22.4967422 2.11716591,22.7194547 2.32512,22.86528 C2.76081751,23.1677038 3.35843083,23.0656827 3.66912,22.63584 L6.91488,18.02784 C7.0659268,17.8137638 7.36073333,17.7603569 7.57728,17.90784 C7.89000547,18.1230161 8.26039957,18.2387851 8.64,18.24 L16.72224,18.24 C16.789182,18.2401936 16.8531629,18.2124199 16.8987348,18.1633845 C16.9443067,18.114349 16.9673279,18.0485087 16.96224,17.98176 L16.74144,15.03264 C16.7174704,14.8682644 16.6746275,14.7072008 16.61376,14.55264 C16.5780748,14.4601603 16.4892058,14.3991344 16.39008,14.39904 L8.64,14.39904 C8.50105749,14.3989464 8.36255925,14.4147287 8.2272,14.44608 C7.99250926,14.4997235 7.75438539,14.3712188 7.6704,14.1456 L7.13184,12.67776 C7.10667141,12.6087622 7.11448113,12.5320385 7.15303604,12.4695271 C7.19159095,12.4070158 7.25664621,12.3655992 7.3296,12.35712 L13.92864,11.58912 C16.0180189,11.3520233 17.9112273,12.8349653 18.18144,14.92032 L18.71904,22.15776 C18.7591651,22.6577491 19.177446,23.0425675 19.67904,23.04096 L19.7568,23.04096 C20.2833961,22.9995864 20.6776381,22.5405668 20.63904,22.01376 L20.09184,14.73792 C19.9125605,13.223344 19.1399143,11.8416951 17.94336,10.896 Z" id="Path"></path>
                    <path d="M22.08,14.4 L21.7632,14.4 C21.695698,14.3999837 21.6313098,14.4283948 21.5858213,14.4782678 C21.5403328,14.5281408 21.5179498,14.5948643 21.52416,14.66208 C21.6,15.48096 21.7776,17.92608 21.78528,18.02208 C21.7948081,18.1470884 21.8989491,18.2437011 22.02432,18.24384 L22.08,18.24384 C23.1403867,18.24384 24,17.3842267 24,16.32384 C24,15.2634533 23.1403867,14.40384 22.08,14.40384 L22.08,14.4 Z" id="Path"></path>
                </g>
            </g>
        </g>
    </g>
</svg>