<?xml version="1.0" encoding="UTF-8"?>
<svg width="24px" height="24px" viewBox="0 0 24 24" version="1.1" xmlns="http://www.w3.org/2000/svg" xmlns:xlink="http://www.w3.org/1999/xlink">
    <!-- Generator: Sketch 54.1 (76490) - https://sketchapp.com -->
    <title>Photo-Inactive@2x</title>
    <desc>Created with Sketch.</desc>
    <g id="Icon-Library" stroke="none" stroke-width="1" fill="none" fill-rule="evenodd">
        <g id="ICONS---guide" transform="translate(-449.000000, -92.000000)">
            <g id="Photo-Inactive" transform="translate(449.000000, 92.000000)">
                <rect id="Rectangle" x="0" y="0" width="24" height="24"></rect>
                <g id="taking-pictures-square" stroke="#000000" stroke-linecap="round" stroke-linejoin="round">
                    <path d="M7.682,7.5 C8.0000504,7.48313192 8.30429645,7.36465823 8.55,7.162 L10,5.838 C10.2455948,5.63515651 10.5499044,5.51665809 10.868,5.5 L13.14,5.5 C13.4553172,5.51834137 13.7565733,5.63674203 14,5.838 L15.45,7.162 C15.6957035,7.36465823 15.9999496,7.48313192 16.318,7.5 L19,7.5 C19.8597428,7.58838411 20.5102205,8.31778654 20.5,9.182 L20.5,16 C20.5,16.8284271 19.8284271,17.5 19,17.5 L5,17.5 C4.17157288,17.5 3.5,16.8284271 3.5,16 L3.5,9.182 C3.48977945,8.31778654 4.14025724,7.58838411 5,7.5 L7.682,7.5 Z" id="Path"></path>
                    <rect id="Rectangle" x="0.5" y="0.5" width="23" height="23" rx="4"></rect>
                    <circle id="Oval" cx="12" cy="11.75" r="2.75"></circle>
                    <path d="M18,9.75 C18.1380712,9.75 18.25,9.86192881 18.25,10 C18.25,10.1380712 18.1380712,10.25 18,10.25 C17.8619288,10.25 17.75,10.1380712 17.75,10 C17.75,9.86192881 17.8619288,9.75 18,9.75" id="Path"></path>
                </g>
            </g>
        </g>
    </g>
</svg>