<?xml version="1.0" encoding="UTF-8"?>
<svg width="24px" height="20px" viewBox="0 0 24 20" version="1.1" xmlns="http://www.w3.org/2000/svg" xmlns:xlink="http://www.w3.org/1999/xlink">
    <!-- Generator: Sketch 54.1 (76490) - https://sketchapp.com -->
    <title>Railing-Inactive@2x</title>
    <desc>Created with Sketch.</desc>
    <g id="Icon-Library" stroke="none" stroke-width="1" fill="none" fill-rule="evenodd">
        <g id="ICONS---guide" transform="translate(-328.000000, -94.000000)">
            <g id="Railing-Inactive" transform="translate(328.000000, 92.000000)">
                <rect id="Rectangle" x="0" y="0" width="24" height="24"></rect>
                <g id="architecture-fence-1" transform="translate(0.000000, 2.000000)" stroke="#000000" stroke-linecap="round" stroke-linejoin="round">
                    <path d="M3.5,0.5 C5.15685425,0.5 6.5,1.84314575 6.5,3.5 L6.5,19 C6.5,19.2761424 6.27614237,19.5 6,19.5 L1,19.5 C0.723857625,19.5 0.5,19.2761424 0.5,19 L0.5,3.5 C0.5,1.84314575 1.84314575,0.5 3.5,0.5 Z" id="Path"></path>
                    <path d="M20.5,0.5 C22.1568542,0.5 23.5,1.84314575 23.5,3.5 L23.5,19 C23.5,19.2761424 23.2761424,19.5 23,19.5 L18,19.5 C17.7238576,19.5 17.5,19.2761424 17.5,19 L17.5,3.5 C17.5,1.84314575 18.8431458,0.5 20.5,0.5 Z" id="Path"></path>
                    <path d="M6.5,7.5 L9.003,7.5" id="Path"></path>
                    <path d="M6.5,16.5 L9.003,16.5" id="Path"></path>
                    <path d="M15.003,7.5 L17.5,7.5" id="Path"></path>
                    <path d="M15.003,16.5 L17.5,16.5" id="Path"></path>
                    <path d="M12,0.5 C13.6568542,0.5 15,1.84314575 15,3.5 L15,19 C15,19.2761424 14.7761424,19.5 14.5,19.5 L9.5,19.5 C9.22385763,19.5 9,19.2761424 9,19 L9,3.5 C9,1.84314575 10.3431458,0.5 12,0.5 Z" id="Path"></path>
                </g>
            </g>
        </g>
    </g>
</svg>