<?xml version="1.0" encoding="UTF-8"?>
<svg width="24px" height="20px" viewBox="0 0 24 20" version="1.1" xmlns="http://www.w3.org/2000/svg" xmlns:xlink="http://www.w3.org/1999/xlink">
    <!-- Generator: Sketch 54.1 (76490) - https://sketchapp.com -->
    <title>Railing-Active@2x</title>
    <desc>Created with Sketch.</desc>
    <g id="Icon-Library" stroke="none" stroke-width="1" fill="none" fill-rule="evenodd">
        <g id="ICONS---guide" transform="translate(-329.000000, -184.000000)">
            <g id="Railing-Active" transform="translate(329.000000, 182.000000)">
                <rect id="Rectangle" x="0" y="0" width="24" height="24"></rect>
                <g id="architecture-fence-1" transform="translate(0.000000, 2.000000)" fill="#000000" fill-rule="nonzero">
                    <path d="M3.5,0 C1.56700338,0 2.36723813e-16,1.56700338 0,3.5 L0,19 C6.76353751e-17,19.5522847 0.44771525,20 1,20 L6,20 C6.55228475,20 7,19.5522847 7,19 L7,3.5 C7,1.56700338 5.43299662,0 3.5,0 Z" id="Path"></path>
                    <path d="M12,0 C10.0670034,0 8.5,1.56700338 8.5,3.5 L8.5,19 C8.5,19.5522847 8.94771525,20 9.5,20 L14.5,20 C15.0522847,20 15.5,19.5522847 15.5,19 L15.5,3.5 C15.5,1.56700338 13.9329966,8.8817842e-16 12,0 Z" id="Path"></path>
                    <path d="M20.5,0 C18.5670034,0 17,1.56700338 17,3.5 L17,19 C17,19.5522847 17.4477153,20 18,20 L23,20 C23.5522847,20 24,19.5522847 24,19 L24,3.5 C24,1.56700338 22.4329966,0 20.5,0 Z" id="Path"></path>
                </g>
            </g>
        </g>
    </g>
</svg>