<?xml version="1.0" encoding="UTF-8"?>
<svg width="24px" height="24px" viewBox="0 0 24 24" version="1.1" xmlns="http://www.w3.org/2000/svg" xmlns:xlink="http://www.w3.org/1999/xlink">
    <!-- Generator: Sketch 54.1 (76490) - https://sketchapp.com -->
    <title>Shape-Active@2x</title>
    <desc>Created with Sketch.</desc>
    <g id="Icon-Library" stroke="none" stroke-width="1" fill="none" fill-rule="evenodd">
        <g id="ICONS---guide" transform="translate(-27.000000, -182.000000)">
            <g id="Shape-Active" transform="translate(27.000000, 182.000000)">
                <rect id="Rectangle" x="0" y="0" width="24" height="24"></rect>
                <g id="shape-square-add" fill="#000000" fill-rule="nonzero">
                    <path d="M23,18 L20.25,18 C20.1119288,18 20,17.8880712 20,17.75 L20,15 C20,14.4477153 19.5522847,14 19,14 C18.4477153,14 18,14.4477153 18,15 L18,17.75 C18,17.8880712 17.8880712,18 17.75,18 L15,18 C14.4477153,18 14,18.4477153 14,19 C14,19.5522847 14.4477153,20 15,20 L17.75,20 C17.8880712,20 18,20.1119288 18,20.25 L18,23 C18,23.5522847 18.4477153,24 19,24 C19.5522847,24 20,23.5522847 20,23 L20,20.25 C20,20.1119288 20.1119288,20 20.25,20 L23,20 C23.5522847,20 24,19.5522847 24,19 C24,18.4477153 23.5522847,18 23,18 Z" id="Path"></path>
                    <path d="M11,18 L2.5,18 C2.22385763,18 2,17.7761424 2,17.5 L2,2.5 C2,2.22385763 2.22385763,2 2.5,2 L17.5,2 C17.7761424,2 18,2.22385763 18,2.5 L18,11 C18,11.5522847 18.4477153,12 19,12 C19.5522847,12 20,11.5522847 20,11 L20,2 C20,0.8954305 19.1045695,6.76353751e-17 18,0 L2,0 C0.8954305,-6.76353751e-17 1.3527075e-16,0.8954305 0,2 L0,18 C1.3527075e-16,19.1045695 0.8954305,20 2,20 L11,20 C11.5522847,20 12,19.5522847 12,19 C12,18.4477153 11.5522847,18 11,18 Z" id="Path"></path>
                </g>
            </g>
        </g>
    </g>
</svg>