<?xml version="1.0" encoding="UTF-8"?>
<svg width="24px" height="24px" viewBox="0 0 24 24" version="1.1" xmlns="http://www.w3.org/2000/svg" xmlns:xlink="http://www.w3.org/1999/xlink">
    <!-- Generator: Sketch 54.1 (76490) - https://sketchapp.com -->
    <title>Substructure-Inactive@2x</title>
    <desc>Created with Sketch.</desc>
    <g id="Icon-Library" stroke="none" stroke-width="1" fill="none" fill-rule="evenodd">
        <g id="ICONS---guide" transform="translate(-213.000000, -92.000000)">
            <g id="Substructure-Inactive" transform="translate(213.000000, 92.000000)">
                <rect id="Rectangle" x="0" y="0" width="24" height="24"></rect>
                <g id="clamps-expand" stroke="#000000" stroke-linecap="round" stroke-linejoin="round">
                    <path d="M23.5,5 C23.5,5.27614237 23.2761424,5.5 23,5.5 L1,5.5 C0.723857625,5.5 0.5,5.27614237 0.5,5 L0.5,1 C0.5,0.723857625 0.723857625,0.5 1,0.5 L23,0.5 C23.2761424,0.5 23.5,0.723857625 23.5,1 L23.5,5 Z" id="Path"></path>
                    <path d="M0.5,23.5 L23.5,23.5" id="Path"></path>
                    <polyline id="Path" points="5 5.5 19 14.5 5 23.5"></polyline>
                    <polyline id="Path" points="19 5.5 5 14.5 19 23.5"></polyline>
                </g>
            </g>
        </g>
    </g>
</svg>